<?xml version="1.0" encoding="UTF-8"?>
<svg id="Layer_8" xmlns="http://www.w3.org/2000/svg" viewBox="0 0 862.94 672.94">
  <defs>
    <style>
      .cls-1, .cls-2 {
        fill: #8c0623;
      }

      .cls-3, .cls-4, .cls-5, .cls-2, .cls-6, .cls-7, .cls-8 {
        stroke-miterlimit: 10;
      }

      .cls-3, .cls-4, .cls-5, .cls-8 {
        stroke-width: 2px;
      }

      .cls-3, .cls-9 {
        fill: #dc0a2d;
      }

      .cls-3, .cls-2, .cls-6, .cls-7, .cls-8 {
        stroke: #8c0623;
      }

      .cls-10 {
        fill: #a3610a;
      }

      .cls-4 {
        stroke: #090406;
      }

      .cls-4, .cls-11 {
        fill: #00322c;
      }

      .cls-12, .cls-7 {
        fill: #fff;
      }

      .cls-13 {
        fill: #090406;
      }

      .cls-5 {
        fill: #196a9c;
        stroke: #0c4968;
      }

      .cls-14 {
        fill: #055b2c;
      }

      .cls-15 {
        fill: #009245;
      }

      .cls-16 {
        fill: #8c0623;
      }

      .cls-17 {
        fill: #bbfffc;
      }

      .cls-2, .cls-6 {
        stroke-width: 3px;
      }

      .cls-6 {
        fill: none;
      }

      .cls-18 {
        fill: #b3b3b3;
      }

      .cls-19 {
        fill: #fcc500;
      }

      .cls-20 {
        fill: #dc0a2d;
      }

      .cls-7 {
        stroke-width: 4px;
      }

      .cls-21 {
        fill: #28aafe;
      }

      .cls-22 {
        fill: #196a9c;
      }

      .cls-23 {
        fill: #681130;
      }

      .cls-24 {
        fill: #021c18;
      }

      .cls-8 {
        fill: #52ae5f;
      }
    </style>
  </defs>
  <path class="cls-20" d="M8,0h457.88v672.94H8c-4.42,0-8-3.58-8-8V8C0,3.58,3.58,0,8,0Z"/>
  <path class="cls-20" d="M465.88,71.41h127.02c2.06,0,4.05.8,5.54,2.24l76.03,73.32h180.47c4.42,0,8,3.6,8,8.04v509.89c0,4.44-3.58,8.04-8,8.04h-389.06V71.41Z"/>
  <circle class="cls-2" cx="153.07" cy="28.7" r="12.96"/>
  <circle class="cls-2" cx="188.84" cy="28.7" r="12.96"/>
  <circle class="cls-2" cx="224.6" cy="28.7" r="12.96"/>
  <circle class="cls-7" cx="81.29" cy="71.41" r="48.18"/>
  <circle class="cls-21" cx="81.29" cy="71.41" r="38.67"/>
  <g>
    <circle class="cls-9" cx="153.07" cy="28.7" r="12.1"/>
    <path class="cls-12" d="M154.14,18.68l-1.07,2.47c4.54,1.14,7.46,3.65,9.83,6.63-1.59-4.33-3.95-7.91-8.77-9.1Z"/>
  </g>
  <g>
    <circle class="cls-19" cx="188.84" cy="28.7" r="12.1"/>
    <path class="cls-12" d="M189.91,18.68l-1.07,2.47c4.54,1.14,7.46,3.65,9.83,6.63-1.59-4.33-3.95-7.91-8.77-9.1Z"/>
  </g>
  <g>
    <circle class="cls-15" cx="224.6" cy="28.7" r="12.1"/>
    <path class="cls-12" d="M225.67,18.68l-1.07,2.47c4.54,1.14,7.46,3.65,9.83,6.63-1.59-4.33-3.95-7.91-8.77-9.1Z"/>
  </g>
  <path class="cls-12" d="M84.65,36.65l-3.35,7.76c14.27,3.58,23.43,11.48,30.88,20.82-4.98-13.6-12.39-24.84-27.53-28.59Z"/>
  <g>
    <rect class="cls-1" x="391.91" y="610.38" width="12.12" height="2.15"/>
    <path class="cls-1" d="M403.03,611.38v.15h-10.12v-.15h10.12M405.03,609.38h-14.12v4.15h14.12v-4.15h0Z"/>
  </g>
  <path class="cls-22" d="M55.35,85.06c5.18,13.57,19.19,21.5,32.82,19.06,14.83-2.65,25.64-16.93,24-32.71-2.88,3.3-11.9,12.76-27.18,16.12-14.13,3.11-25.47-.8-29.65-2.47Z"/>
  <path class="cls-16" d="M146.78,33.46c1.39,3.65,5.16,5.78,8.82,5.12,3.99-.71,6.89-4.55,6.45-8.79-.77.89-3.2,3.43-7.31,4.33-3.8.84-6.85-.21-7.97-.66Z"/>
  <path class="cls-10" d="M182.21,33.46c1.39,3.65,5.16,5.78,8.82,5.12,3.99-.71,6.89-4.55,6.45-8.79-.77.89-3.2,3.43-7.31,4.33-3.8.84-6.85-.21-7.97-.66Z"/>
  <path class="cls-14" d="M217.85,33.46c1.39,3.65,5.16,5.78,8.82,5.12,3.99-.71,6.89-4.55,6.45-8.79-.77.89-3.2,3.43-7.31,4.33-3.8.84-6.85-.21-7.97-.66Z"/>
  <g>
    <rect class="cls-16" x="395.68" y="71.41" width="9.18" height="14.79"/>
    <g>
      <g>
        <rect class="cls-1" x="390.59" y="127.09" width="85.65" height="6.88"/>
        <path class="cls-1" d="M475.24,128.09v4.88h-83.65v-4.88h83.65M477.24,126.09h-87.65v8.88h87.65v-8.88h0Z"/>
      </g>
      <g>
        <rect class="cls-9" x="399.06" y="72.41" width="77.18" height="55.76" rx="2" ry="2"/>
        <path class="cls-1" d="M474.24,73.41c.55,0,1,.45,1,1v51.76c0,.55-.45,1-1,1h-73.18c-.55,0-1-.45-1-1v-51.76c0-.55.45-1,1-1h73.18M474.24,71.41h-73.18c-1.66,0-3,1.34-3,3v51.76c0,1.66,1.34,3,3,3h73.18c1.66,0,3-1.34,3-3v-51.76c0-1.66-1.34-3-3-3h0Z"/>
      </g>
    </g>
  </g>
  <rect class="cls-23" x="448.5" y="134.97" width="10.35" height="479"/>
  <g>
    <rect class="cls-1" x="390.59" y="610.38" width="6.88" height="61.56"/>
    <path class="cls-1" d="M396.47,611.38v59.56h-4.88v-59.56h4.88M398.47,609.38h-8.88v63.56h8.88v-63.56h0Z"/>
  </g>
  <g>
    <rect class="cls-16" x="395.68" y="658.15" width="9.18" height="14.79"/>
    <g>
      <g>
        <rect class="cls-1" x="390.59" y="665.06" width="85.65" height="6.88"/>
        <path class="cls-1" d="M475.24,666.06v4.88h-83.65v-4.88h83.65M477.24,664.06h-87.65v8.88h87.65v-8.88h0Z"/>
      </g>
      <g>
        <rect class="cls-9" x="399.06" y="610.38" width="77.18" height="55.76" rx="2" ry="2"/>
        <path class="cls-1" d="M474.24,611.38c.55,0,1,.45,1,1v51.76c0,.55-.45,1-1,1h-73.18c-.55,0-1-.45-1-1v-51.76c0-.55.45-1,1-1h73.18M474.24,609.38h-73.18c-1.66,0-3,1.34-3,3v51.76c0,1.66,1.34,3,3,3h73.18c1.66,0,3-1.34,3-3v-51.76c0-1.66-1.34-3-3-3h0Z"/>
      </g>
    </g>
  </g>
  <circle class="cls-2" cx="788.41" cy="609.9" r="27.9"/>
  <g>
    <circle class="cls-19" cx="788.41" cy="609.9" r="26.04"/>
    <path class="cls-12" d="M790.71,588.34l-2.3,5.32c9.78,2.46,16.06,7.87,21.17,14.27-3.41-9.32-8.49-17.03-18.87-19.6Z"/>
  </g>
  <path class="cls-10" d="M774.14,620.16c3,7.85,11.1,12.44,18.99,11.03,8.58-1.54,14.83-9.8,13.89-18.92-1.67,1.91-6.89,7.38-15.73,9.33-8.18,1.8-14.74-.46-17.15-1.43Z"/>
  <polygon class="cls-16" points="0 148.12 188.84 148.12 275.24 71.41 398.06 71.41 398.06 129.06 389.59 129.06 389.59 80 274.88 80 189.87 155.88 0 155.88 0 148.12"/>
  <path class="cls-6" d="M22.79,162.29h171.89c2.02,0,3.96-.76,5.44-2.13l75.51-70.04c1.48-1.37,3.42-2.13,5.44-2.13h85.8c4.42,0,8,3.58,8,8v554.07c0,4.42-3.58,8-8,8H24.39c-4.41,0-7.99-3.57-8-7.97l-1.59-479.76c-.01-4.43,3.57-8.03,8-8.03Z"/>
  <path class="cls-6" d="M840.72,162.29h-171.89c-2.02,0-3.96-.76-5.44-2.13l-75.51-70.04c-1.48-1.37-3.42-2.13-5.44-2.13h-85.8c-4.42,0-8,3.58-8,8v554.07c0,4.42,3.58,8,8,8h342.5c4.41,0,7.99-3.57,8-7.97l1.59-479.76c.01-4.43-3.57-8.03-8-8.03Z"/>
  <g>
    <path class="cls-17" d="M81.29,458.74c-2.53,0-5-1.03-6.77-2.83l-25.94-26.34c-1.76-1.79-2.73-4.16-2.73-6.67v-218.37c0-5.24,4.26-9.5,9.5-9.5h294.12c5.24,0,9.5,4.26,9.5,9.5v244.71c0,5.24-4.26,9.5-9.5,9.5H81.29Z"/>
    <path class="cls-1" d="M349.47,196.53c4.42,0,8,3.58,8,8v244.71c0,4.42-3.58,8-8,8H81.29c-2.14,0-4.2-.86-5.7-2.39l-25.94-26.34c-1.47-1.5-2.3-3.51-2.3-5.61v-218.37c0-4.42,3.58-8,8-8h294.12M349.47,193.53H55.35c-6.07,0-11,4.93-11,11v218.37c0,2.91,1.12,5.65,3.16,7.72l25.94,26.34c2.05,2.09,4.91,3.28,7.84,3.28h268.18c6.07,0,11-4.93,11-11v-244.71c0-6.07-4.93-11-11-11h0Z"/>
  </g>
  <rect class="cls-8" x="112.76" y="532.22" width="122.94" height="69.18" rx="3" ry="3"/>
  <rect class="cls-8" x="518.29" y="197.03" width="298.01" height="69.41" rx="3" ry="3"/>
  <rect class="cls-18" x="518.24" y="578.23" width="108.84" height="47.25" rx="3" ry="3"/>
  <g>
    <path class="cls-12" d="M523.34,580.44h48.41v42.84h-48.41c-1.66,0-3-1.34-3-3v-36.84c0-1.66,1.34-3,3-3Z"/>
    <path class="cls-12" d="M576.41,580.44h48.57v42.84h-48.57c-1.66,0-3-1.34-3-3v-36.84c0-1.66,1.34-3,3-3Z" transform="translate(1198.4 1203.71) rotate(180)"/>
  </g>
  <rect class="cls-3" x="518.29" y="285.15" width="298.01" height="170.03" rx="3" ry="3"/>
  <circle class="cls-4" cx="71.47" cy="518.1" r="28.47"/>
  <rect class="cls-3" x="111.06" y="493.87" width="57.35" height="12.88" rx="6.44" ry="6.44"/>
  <rect class="cls-5" x="185.18" y="493.87" width="57.35" height="12.88" rx="6.44" ry="6.44"/>
  <rect class="cls-4" x="696.64" y="548.09" width="57.35" height="12.88" rx="6.44" ry="6.44"/>
  <rect class="cls-4" x="758.96" y="548.09" width="57.35" height="12.88" rx="6.44" ry="6.44"/>
  <g>
    <g>
      <path class="cls-11" d="M288.71,600.85c-1.1,0-2-.9-2-2v-29.76c0-2.21-1.79-4-4-4h-29.76c-1.1,0-2-.9-2-2v-30c0-1.1.9-2,2-2h29.76c2.21,0,4-1.79,4-4v-29.76c0-1.1.9-2,2-2h30c1.1,0,2,.9,2,2v29.76c0,2.21,1.79,4,4,4h29.76c1.1,0,2,.9,2,2v30c0,1.1-.9,2-2,2h-29.76c-2.21,0-4,1.79-4,4v29.76c0,1.1-.9,2-2,2h-30Z"/>
      <path class="cls-13" d="M318.71,496.33c.55,0,1,.45,1,1v29.76c0,2.76,2.24,5,5,5h29.76c.55,0,1,.45,1,1v30c0,.55-.45,1-1,1h-29.76c-2.76,0-5,2.24-5,5v29.76c0,.55-.45,1-1,1h-30c-.55,0-1-.45-1-1v-29.76c0-2.76-2.24-5-5-5h-29.76c-.55,0-1-.45-1-1v-30c0-.55.45-1,1-1h29.76c2.76,0,5-2.24,5-5v-29.76c0-.55.45-1,1-1h30M318.71,494.33h-30c-1.66,0-3,1.34-3,3v29.76c0,1.66-1.34,3-3,3h-29.76c-1.66,0-3,1.34-3,3v30c0,1.66,1.34,3,3,3h29.76c1.66,0,3,1.34,3,3v29.76c0,1.66,1.34,3,3,3h30c1.66,0,3-1.34,3-3v-29.76c0-1.66,1.34-3,3-3h29.76c1.66,0,3-1.34,3-3v-30c0-1.66-1.34-3-3-3h-29.76c-1.66,0-3-1.34-3-3v-29.76c0-1.66-1.34-3-3-3h0Z"/>
    </g>
    <circle class="cls-24" cx="303.71" cy="548.09" r="12.56"/>
  </g>
  <rect class="cls-18" x="570.96" y="579.89" width="3.09" height="44.65"/>
</svg>